<svg xmlns="http://www.w3.org/2000/svg" viewBox="0 0 100 100" width="100" height="100">
  <!-- 背景圆形 -->
  <circle cx="50" cy="50" r="45" fill="#3eaf7c" />
  <!-- 字母B -->
  <path d="M35 30 H55 C62 30 67 35 67 42 C67 48 63 52 58 53 C64 54 69 58 69 65 C69 73 63 78 55 78 H35 V30 Z" fill="white" />
  <path d="M45 40 V50 H53 C56 50 57 47 57 45 C57 42 55 40 53 40 H45 Z" fill="#3eaf7c" />
  <path d="M45 58 V68 H54 C57 68 59 66 59 63 C59 60 57 58 54 58 H45 Z" fill="#3eaf7c" />
  <!-- 装饰元素 -->
  <circle cx="80" cy="20" r="5" fill="white" opacity="0.7" />
  <circle cx="20" cy="80" r="3" fill="white" opacity="0.5" />
</svg>